<svg id="treehouse" class="custom-icon" version="1.1" xmlns="http://www.w3.org/2000/svg" xmlns:xlink="http://www.w3.org/1999/xlink" viewBox="0 0 100 100">

 <g>
  <title>background</title>
  <rect fill="none" id="canvas_background" height="402" width="582" y="-1" x="-1"/>
 </g>
 <g>
  <title>Layer 1</title>
  <circle class="outer-shape" cx="50" cy="50" r="48" style="opacity: 1; fill: rgb(169,94,255);"/>
  <g stroke="null" id="svg_2">
   <path stroke="null" id="svg_3" fill="#f7f7f7" d="m91.790877,23.50535c-1.306667,-0.654035 -4.246667,-1.962105 -7.513333,-3.92421c-3.593333,-1.962105 -9.146667,1.30807 -12.74,6.867368l-6.206667,10.464561c-2.286667,4.578245 -1.96,9.483508 0.98,13.734736l0.326667,0.327017c2.94,4.251228 6.86,7.848421 7.84,9.156491c0.653333,0.654035 1.306667,1.962105 1.633333,2.943158c0.98,3.92421 -0.98,7.521403 -4.9,8.502455c-3.593333,0.981053 -7.513333,-1.30807 -8.82,-4.905263c-0.326667,-0.981053 -0.326667,-1.962105 -0.326667,-2.943158c0.326667,-1.635087 -0.326667,-4.251228 -2.613333,-6.213333c-2.286667,-2.61614 -6.86,2.289123 -8.166667,6.867368l0,0.327017c-1.306667,4.905263 -2.286667,8.829473 -1.96,9.156491c0,0.327017 0.326667,0.654035 0.326667,0.654035c1.96,3.92421 0.653333,8.502456 -3.266667,10.464561c-3.92,1.962105 -8.82,0.654035 -10.78,-3.270175c-1.96,-3.92421 -0.653333,-8.502456 3.266667,-10.464561c0.326667,0 0.326667,-0.327017 0.653333,-0.327017c0.326667,0 0.98,-2.289123 1.96,-4.578245c0.653333,-2.289123 1.306667,-4.251228 1.306667,-4.251228c0,-0.327018 0,-0.654035 0.326667,-0.654035l3.92,-13.734736l-3.92,8.175438c-0.653333,-1.635087 -1.306667,-1.635087 -3.266667,-0.327017c-0.98,0.654035 -2.94,2.289123 -3.593333,2.943158c-1.633333,1.30807 -2.94,3.597193 -3.593333,4.905263c-0.326667,0.981053 -0.98,1.635088 -1.633333,2.289123c-2.94,2.61614 -7.513333,1.962105 -9.8,-0.981053c-2.286667,-2.943158 -1.633333,-6.867368 1.306667,-9.156491c0.98,-0.654035 1.96,-1.30807 2.94,-1.30807c1.633333,-0.327018 7.84,-4.251228 11.433333,-6.540351c0.653333,-0.327017 1.306667,-0.981053 1.633333,-1.30807l9.473333,-6.867368l-8.493333,4.578245l-1.96,0c-2.613333,0.327018 -5.88,0.654035 -6.533333,1.635088c-0.326667,0.327017 -0.653333,0.981053 -1.306667,1.30807c-2.613333,1.30807 -6.533333,0.654035 -8.82,-1.962105c-1.96,-2.943158 -1.306667,-6.54035 1.306667,-8.502455c1.633333,-0.981053 2.94,-1.30807 4.246667,-1.30807c2.286667,0 8.166667,1.30807 13.066667,0.327018l1.306667,-0.327018c4.9,-0.981053 10.78,-4.905263 13.066667,-9.483508c0,0 2.286667,-4.251228 5.226667,-8.829473c2.94,-4.905263 2.613333,-10.137544 -0.326667,-12.099649l-5.553333,-3.270175c-2.94,-1.635088 -7.513333,-1.635088 -10.453333,0l-38.546667,21.256139c-2.94,1.635087 -5.226667,5.886315 -5.226667,9.156491l0,41.858243c0,3.270175 2.286667,6.867368 5.226667,8.502455l38.873333,21.583157c2.94,1.635088 7.513333,1.635088 10.453333,0l38.22,-21.910174c2.94,-1.635088 5.226667,-5.23228 5.226667,-8.502456l0,-41.531225c0,-3.270175 -2.286667,-6.867368 -5.226667,-8.502456l0,0z" transform="translate(25,25) scale(0.5) " class="inner-shape"/>
  </g>
 </g>
</svg>
